# xmcd
#
# Track frame offsets:
#	150
#	17599
#	33046
#	54034
#	77152
#	107394
#	125328
#	148457
#	166403
#	186605
#
# Disc length: 2778 seconds
# Revision: 2
# Processed by: cddbd v1.5.2PL0 Copyright (c) Steve Scherf et al.
# Submitted via: dBpowerAMP V12.0
#
DISCID=7c0ad80a
DTITLE=Himsa - Hail Horror
DYEAR=2006
DGENRE=Thrash Metal
TTITLE0=Anathema
TTITLE1=Sleezevil
TTITLE2=The Destroyer
TTITLE3=Pestilence
TTITLE4=Wither
TTITLE5=Wolfchild
TTITLE6=Seminal
TTITLE7=The Speak In Swarms
TTITLE8=Calling In Silent
TTITLE9=Send Down Your Reign
EXTD=
EXTT0=
EXTT1=
EXTT2=
EXTT3=
EXTT4=
EXTT5=
EXTT6=
EXTT7=
EXTT8=
EXTT9=
PLAYORDER=
